inDegrees=yes
name=ik_Xsens_quaternion
DataType=double
version=3
OpenSimVersion=4.4-2022-07-23-0e9fedc
endheader
time	pelvis_tilt	pelvis_list	pelvis_rotation	pelvis_tx	pelvis_ty	pelvis_tz	hip_flexion_r	hip_adduction_r	hip_rotation_r	knee_angle_r	knee_angle_r_beta	ankle_angle_r	subtalar_angle_r	mtp_angle_r	hip_flexion_l	hip_adduction_l	hip_rotation_l	knee_angle_l	knee_angle_l_beta	ankle_angle_l	subtalar_angle_l	mtp_angle_l	lumbar_extension	lumbar_bending	lumbar_rotation	arm_flex_r	arm_add_r	arm_rot_r	elbow_flex_r	pro_sup_r	wrist_flex_r	wrist_dev_r	arm_flex_l	arm_add_l	arm_rot_l	elbow_flex_l	pro_sup_l	wrist_flex_l	wrist_dev_l
30.25	0	0	0	0	0.93	0	4.594144125593695e-49	0	0	2.426570649309934e-20	-3.380020420727146e-23	0	0	0	4.594144125593695e-49	0	0	2.426570649309934e-20	-8.993134158427017e-23	0	0	0	0	0	0	8614.047064601842	-1285.668226247909	4701.411404987859	-1128.968272964668	5230.239147361452	0	0	-4449.218163935737	-1481.82709021096	4042.546098883443	338.5275870742178	4340.231784370104	0	0
30.26666666666667	0	0	0	0	0.93	0	4.594144125593695e-49	0	0	2.426570649309934e-20	-3.380020420727165e-23	0	0	0	4.594144125593695e-49	0	0	2.426570649309934e-20	-8.993134158427035e-23	0	0	0	0	0	0	8614.050894943717	-1285.675013390726	4701.384619233685	-1128.967616715435	5230.246381653045	0	0	-4449.220063346865	-1481.819190660492	4042.561094256244	338.5361299248729	4340.211704183683	0	0
30.28333333333333	0	0	0	0	0.93	0	4.594144125593695e-49	0	0	2.426570649309934e-20	-3.380020420727165e-23	0	0	0	4.594144125593695e-49	0	0	2.426570649309934e-20	-8.993134158427035e-23	0	0	0	0	0	0	8614.078232264264	-1285.682714395599	4701.344409665884	-1128.953363248016	5230.264298213244	0	0	-4449.245690179231	-1481.83893607582	4042.591656439419	338.604455906718	4340.157195717395	0	0
30.3	0	0	0	0	0.93	0	0	0	0	0	-5.877471754111438e-39	0	0	0	0	0	0	0	0	0	0	0	0	0	0	8614.07719099826	-1285.688752000571	4701.344929644057	-1128.940569035319	5230.252688935848	0	0	-4449.309890415902	-1481.908251821059	4042.678881403679	338.8086602246259	4339.969855331754	0	0
30.31666666666667	0	0	0	0	0.93	0	4.594144125593695e-49	0	0	2.426570649309934e-20	-5.241540515187502e-23	0	0	0	4.594144125593695e-49	0	0	2.426570649309934e-20	-5.241540515187501e-23	0	0	0	0	0	0	8614.081759873652	-1285.699552231654	4701.34048741882	-1128.941563127094	5230.255257311282	0	0	-4449.304091472445	-1481.902296127275	4042.70151426055	338.8344781325972	4339.948353529474	0	0
30.33333333333333	0	0	0	0	0.93	0	4.594144125593695e-49	0	0	2.426570649309934e-20	-5.241540515187502e-23	0	0	0	4.594144125593695e-49	0	0	2.426570649309934e-20	-5.241540515187501e-23	0	0	0	0	0	0	8614.068191796725	-1285.725892208724	4701.332584987866	-1128.931605904583	5230.306483677672	0	0	-4449.354785436051	-1481.948453546158	4042.78388988802	338.995118158968	4339.779538010347	0	0
30.35	0	0	0	0	0.93	0	4.594144125593695e-49	0	0	2.426570649309934e-20	-1.0483081030375e-22	0	0	0	4.594144125593695e-49	0	0	2.426570649309934e-20	-1.0483081030375e-22	0	0	0	0	0	0	8614.083241471062	-1285.711182190359	4701.329846921512	-1128.939503038977	5230.289867582725	0	0	-4449.360312174944	-1481.95210729094	4042.770683674772	339.0172224380452	4339.781938596403	0	0
30.36666666666667	0	0	0	0	0.93	0	4.594144125593695e-49	0	0	2.426570649309934e-20	-5.241540515187354e-23	0	0	0	4.594144125593695e-49	0	0	2.426570649309934e-20	-5.241540515187353e-23	0	0	0	0	0	0	8614.093805532657	-1285.707213241089	4701.323285667772	-1128.935975247436	5230.294376008968	0	0	-4449.352779358357	-1481.945347969202	4042.780899482086	339.0303384907584	4339.785441863687	0	0
30.38333333333333	0	0	0	0	0.93	0	4.594144125593695e-49	0	0	2.426570649309934e-20	-5.241540515187354e-23	0	0	0	4.594144125593695e-49	0	0	2.426570649309934e-20	-5.241540515187353e-23	0	0	0	0	0	0	8614.106215593598	-1285.701897163928	4701.312436105202	-1128.932229068032	5230.293819753332	0	0	-4449.342615299958	-1481.943278907912	4042.799059395703	339.0570572768085	4339.794544633392	0	0
30.4	0	0	0	0	0.93	0	4.594144125593695e-49	0	0	2.426570649309934e-20	-5.241540515187354e-23	0	0	0	4.594144125593695e-49	0	0	2.426570649309934e-20	-5.241540515187353e-23	0	0	0	0	0	0	8614.115958827746	-1285.695423343903	4701.30000950454	-1128.932374973748	5230.293084423123	0	0	-4449.334934632999	-1481.943814905497	4042.817529341269	339.0859081816911	4339.799200459805	0	0
30.41666666666667	0	0	0	0	0.93	0	4.594144125593695e-49	0	0	2.426570649309934e-20	1.475245410281971e-36	0	0	0	4.594144125593695e-49	0	0	2.426570649309934e-20	1.487000353790194e-36	0	0	0	0	0	0	8614.127507722489	-1285.691480246964	4701.289240496919	-1128.930029941188	5230.288532451375	0	0	-4449.326243289738	-1481.950968730791	4042.833624322028	339.1114419070842	4339.805086767242	0	0
30.43333333333333	0	0	0	0	0.93	0	4.594144125593695e-49	0	0	2.426570649309934e-20	1.475245410281971e-36	0	0	0	4.594144125593695e-49	0	0	2.426570649309934e-20	1.487000353790194e-36	0	0	0	0	0	0	8614.13444904857	-1285.687872334441	4701.281363080664	-1128.928032487595	5230.282175056139	0	0	-4449.325760871435	-1481.944878382623	4042.840453750794	339.114725178769	4339.799344468162	0	0
30.45	0	0	0	0	0.93	0	4.594144125593695e-49	0	0	2.426570649309934e-20	5.241540515187649e-23	0	0	0	4.594144125593695e-49	0	0	2.426570649309934e-20	5.24154051518765e-23	0	0	0	0	0	0	8614.142671365278	-1285.679411910941	4701.265296893441	-1128.923537834077	5230.280882055764	0	0	-4449.320305054151	-1481.942216086756	4042.848635872466	339.1132134300933	4339.795219816784	0	0
30.46666666666667	0	0	0	0	0.93	0	4.594144125593695e-49	0	0	2.426570649309934e-20	1.048308103037515e-22	0	0	0	4.594144125593695e-49	0	0	2.426570649309934e-20	1.048308103037515e-22	0	0	0	0	0	0	8614.155745641505	-1285.663846723143	4701.237263229443	-1128.92145559456	5230.284894420753	0	0	-4449.297166667056	-1481.930739322899	4042.836529667417	339.0831334048387	4339.818509673029	0	0
30.48333333333333	-2.96567154428504e-25	-1.259134609727484e-21	1.493685935543067e-24	6.753733147182841e-24	0.93	1.410315949243772e-23	-1.508659379216363e-34	2.752534788085176e-21	-2.606667689714589e-34	0	-6.53476694708887e-17	-9.106944380582011e-16	-2.638150743304119e-18	1.272750045225953e-19	1.009806263717263e-25	5.568628902628917e-24	7.101337452580965e-14	0	-2.852814292070783e-17	-2.25273301042214e-15	-3.221858367529616e-19	2.801273255718515e-19	-1.243463205248682e-14	1.033790890288044e-14	1.77897381336398e-15	8614.148695749591	-1285.666578007747	4701.249030071966	-1128.920427645166	5230.281028296668	-1.05794417874513e-20	1.196363436917628e-16	-4449.167389031762	-1481.830924654009	4042.725251132862	338.7894480276408	4340.122110954196	-1.021888133261566e-21	-2.965019200735465e-17
30.5	-1.505409147074542e-44	-6.166155866417324e-41	6.021636588298168e-44	2.690493051503649e-43	0.93	5.380986103007298e-43	4.594144125593695e-49	1.233231173283465e-40	-9.34681015135436e-54	2.426570649309934e-20	-2.071838745970875e-23	-4.310455369189608e-35	-1.262828721442268e-37	5.261786339342783e-39	5.018030490248473e-45	2.408654635319267e-43	2.758691436281349e-33	2.426570649309934e-20	5.754211097846934e-23	-8.620910738379216e-35	-1.578535901802835e-38	1.052357267868557e-38	-5.17254644302753e-34	5.17254644302753e-34	8.620910738379216e-35	8614.144412674228	-1285.666043160719	4701.238766830442	-1128.922591804692	5230.276853043274	-4.932924693133859e-40	5.38806921148701e-36	-4449.174396615777	-1481.817938192247	4042.680912577182	338.7638873719063	4340.152799586576	-4.110770577611549e-41	-1.347017302871753e-36
30.51666666666667	-2.043424300156267e-26	-3.929795814074036e-26	5.106615743614429e-27	-2.015872341311702e-27	0.93	-7.704398114149481e-27	4.566767129054642e-34	-1.379345718140675e-33	3.019295679130846e-24	0	-1.279048136938198e-19	1.744805239473315e-18	1.377855212429768e-21	4.916383604892397e-19	4.880509191664916e-25	-1.498025062089702e-14	-1.562522483969792e-16	0	-1.278980614318731e-19	-1.031949269902475e-19	1.408334328971917e-20	1.003621966462192e-18	2.196085930584882e-15	8.141810526845831e-15	-4.486943582680013e-16	8614.14907429666	-1285.662878748894	4701.23853716259	-1128.925073224735	5230.279302732905	6.343102143290074e-21	-6.997405138209137e-20	-4449.143794241588	-1481.786973506999	4042.657533889518	338.706016733819	4340.235023896554	8.397891954006657e-20	3.816744239004968e-25
